<?xml version="1.0" encoding="UTF-8" standalone="no"?>
<!-- Created with Inkscape (http://www.inkscape.org/) -->

<svg
   xmlns:dc="http://purl.org/dc/elements/1.1/"
   xmlns:cc="http://creativecommons.org/ns#"
   xmlns:rdf="http://www.w3.org/1999/02/22-rdf-syntax-ns#"
   xmlns:svg="http://www.w3.org/2000/svg"
   xmlns="http://www.w3.org/2000/svg"
   xmlns:sodipodi="http://sodipodi.sourceforge.net/DTD/sodipodi-0.dtd"
   xmlns:inkscape="http://www.inkscape.org/namespaces/inkscape"
   width="361.625"
   height="358.59375"
   id="svg2"
   version="1.1"
   inkscape:version="0.48.4 r9939"
   sodipodi:docname="guage.svg">
  <defs
     id="defs4" />
  <sodipodi:namedview
     id="base"
     pagecolor="#ffffff"
     bordercolor="#666666"
     borderopacity="1.0"
     inkscape:pageopacity="0.0"
     inkscape:pageshadow="2"
     inkscape:zoom="0.98994949"
     inkscape:cx="226.18765"
     inkscape:cy="178.28856"
     inkscape:document-units="px"
     inkscape:current-layer="layer1"
     showgrid="false"
     inkscape:window-width="1366"
     inkscape:window-height="715"
     inkscape:window-x="-8"
     inkscape:window-y="-8"
     inkscape:window-maximized="1"
     fit-margin-top="0"
     fit-margin-left="0"
     fit-margin-right="0"
     fit-margin-bottom="0" />
  <metadata
     id="metadata7">
    <rdf:RDF>
      <cc:Work
         rdf:about="">
        <dc:format>image/svg+xml</dc:format>
        <dc:type
           rdf:resource="http://purl.org/dc/dcmitype/StillImage" />
        <dc:title></dc:title>
      </cc:Work>
    </rdf:RDF>
  </metadata>
  <g
     inkscape:label="Layer 1"
     inkscape:groupmode="layer"
     id="layer1"
     transform="translate(-176.27505,-327.56963)">
    <g
       id="g3787"
       transform="translate(-16.162445,-27.274119)">
      <path
         d="m 553.5636,534.15393 c 0,98.74686 -80.72853,178.797 -180.31223,178.797 -99.58369,0 -180.31222,-80.05014 -180.31222,-178.797 0,-98.74685 80.72853,-178.797 180.31222,-178.797 99.5837,0 180.31223,80.05015 180.31223,178.797 z"
         sodipodi:ry="178.797"
         sodipodi:rx="180.31223"
         sodipodi:cy="534.15393"
         sodipodi:cx="373.25137"
         id="path2993"
         style="fill:#000000;fill-rule:evenodd;stroke:#000000;stroke-width:1px;stroke-linecap:butt;stroke-linejoin:miter;stroke-opacity:1"
         sodipodi:type="arc" />
      <path
         d="m 553.5636,534.15393 c 0,98.74686 -80.72853,178.797 -180.31223,178.797 -99.58369,0 -180.31222,-80.05014 -180.31222,-178.797 0,-98.74685 80.72853,-178.797 180.31222,-178.797 99.5837,0 180.31223,80.05015 180.31223,178.797 z"
         sodipodi:ry="178.797"
         sodipodi:rx="180.31223"
         sodipodi:cy="534.15393"
         sodipodi:cx="373.25137"
         id="path2993-1"
         style="fill:#cccccc;fill-rule:evenodd;stroke:#000000;stroke-width:1px;stroke-linecap:butt;stroke-linejoin:miter;stroke-opacity:1"
         sodipodi:type="arc"
         transform="matrix(0.891,0,0,0.891,41.169164,60.243082)" />
    </g>
    <g
       id="g3793"
       transform="translate(415.1727,-16.162441)">
      <path
         transform="translate(11.111681,3.0304577)"
         d="m 384.86812,540.21484 c 0,11.15784 -9.04521,20.20305 -20.20305,20.20305 -11.15784,0 -20.20305,-9.04521 -20.20305,-20.20305 0,-11.15783 9.04521,-20.20305 20.20305,-20.20305 11.15784,0 20.20305,9.04522 20.20305,20.20305 z"
         sodipodi:ry="20.203051"
         sodipodi:rx="20.203051"
         sodipodi:cy="540.21484"
         sodipodi:cx="364.66507"
         id="path3785"
         style="fill:#000000"
         sodipodi:type="arc" />
      <path
         inkscape:connector-curvature="0"
         id="path3791"
         d="M 355.5737,544.25545 376.7869,410.91532 395.9798,543.2453"
         style="fill:#000000;fill-opacity:1;stroke:#000000;stroke-width:1px;stroke-linecap:butt;stroke-linejoin:miter;stroke-opacity:1" />
    </g>
  </g>
</svg>
